<svg width="60" height="66" viewBox="0 0 60 66" fill="none" xmlns="http://www.w3.org/2000/svg">
<path d="M27.0434 0.697216C28.6679 -0.230309 30.7838 -0.234499 32.4068 0.697216C40.5723 5.2997 48.7403 9.89496 56.9044 14.5002C58.44 15.3631 59.4671 17.0677 59.4515 18.8327V46.523C59.4629 48.3611 58.3343 50.1065 56.7142 50.9498C48.5756 55.5269 40.4412 60.1096 32.3039 64.6867C30.6459 65.6324 28.4875 65.5595 26.8813 64.5363C24.4413 63.1254 21.9972 61.7214 19.557 60.3118C19.0583 60.0153 18.4962 59.7793 18.1441 59.297C18.4554 58.8785 19.0119 58.8264 19.4641 58.6437C20.4826 58.3206 21.418 57.8021 22.3537 57.2988C22.5903 57.1373 22.8792 57.1992 23.106 57.3438C25.1924 58.5371 27.2604 59.7651 29.3539 60.947C29.8005 61.2042 30.2527 60.8628 30.6344 60.6505C38.6209 56.1479 46.6172 51.6622 54.6024 47.1582C54.8982 47.0162 55.0618 46.7029 55.0377 46.3796C55.0433 37.2452 55.0392 28.1091 55.0406 18.9747C55.0744 18.6079 54.8616 18.2706 54.5291 18.1205C46.4187 13.5643 38.3125 9.00119 30.2035 4.44386C30.063 4.34751 29.8965 4.29582 29.726 4.29557C29.5556 4.29532 29.389 4.34653 29.2482 4.44246C21.1392 9.00119 13.0344 13.5685 4.92538 18.1245C4.59405 18.2748 4.37169 18.6065 4.41112 18.9747C4.41252 28.1091 4.41112 37.2452 4.41112 46.381C4.39706 46.5388 4.43179 46.697 4.51064 46.8345C4.58948 46.9719 4.70866 47.082 4.85212 47.1498C7.01604 48.3739 9.18277 49.5893 11.3481 50.8092C12.568 51.4642 14.0657 51.8533 15.4097 51.3515C16.5957 50.9272 17.4271 49.7199 17.4045 48.4637C17.4157 39.3826 17.3989 30.3001 17.4129 21.2203C17.3832 20.8172 17.7666 20.4841 18.1595 20.5221C19.1993 20.5151 20.2404 20.5081 21.2801 20.5248C21.7141 20.5151 22.0128 20.9492 21.9591 21.3553C21.9549 30.4939 21.9703 39.6328 21.9521 48.7714C21.9549 51.207 20.9518 53.8571 18.6934 55.0488C15.9111 56.4865 12.4723 56.1816 9.72363 54.803C7.34411 53.6183 5.07332 52.2201 2.73603 50.9509C1.1118 50.1123 -0.0112325 48.3599 0.000200829 46.5233V18.8327C-0.0168324 17.0312 1.05113 15.2956 2.63453 14.4453C10.7718 9.86447 18.9076 5.28015 27.0434 0.697216Z" fill="#8CC84B"/>
<path d="M34.1424 19.8786C37.6914 19.6507 41.4907 19.7436 44.6843 21.4876C47.157 22.8241 48.5278 25.629 48.5714 28.3692C48.5024 28.7388 48.115 28.9427 47.7613 28.9174C46.7316 28.916 45.7017 28.9313 44.672 28.9104C44.2352 28.9271 43.9813 28.5254 43.9265 28.1402C43.6306 26.8291 42.9138 25.5306 41.6767 24.8982C39.7776 23.9497 37.5756 23.9974 35.5048 24.0172C33.993 24.0973 32.3674 24.2278 31.0867 25.1146C30.1034 25.7864 29.8047 27.1424 30.1557 28.2345C30.4865 29.0186 31.394 29.2716 32.1364 29.5048C36.4134 30.6207 40.9457 30.5096 45.141 31.9781C46.8779 32.5767 48.577 33.7405 49.1716 35.5546C49.9493 37.9859 49.6084 40.8921 47.8742 42.844C46.4679 44.4502 44.4197 45.3244 42.3769 45.7993C39.6593 46.4037 36.839 46.4191 34.0791 46.1507C31.484 45.8556 28.7834 45.1755 26.78 43.4117C25.0669 41.9279 24.2302 39.6159 24.3132 37.3845C24.3331 37.0077 24.7092 36.7449 25.0711 36.7758C26.108 36.7675 27.145 36.7647 28.1819 36.7772C28.5961 36.7477 28.9031 37.1047 28.9244 37.4941C29.1157 38.7433 29.5863 40.0544 30.6783 40.795C32.7858 42.1513 35.4301 42.0584 37.8433 42.0964C39.8425 42.0079 42.0867 41.9812 43.7181 40.6631C44.5789 39.9113 44.8339 38.6535 44.6013 37.5714C44.3493 36.6578 43.3912 36.2321 42.5685 35.9538C38.3463 34.6215 33.7635 35.1049 29.5821 33.5983C27.8846 32.9999 26.2431 31.8685 25.591 30.1288C24.681 27.6668 25.0979 24.6214 27.0138 22.7354C28.8819 20.8594 31.5785 20.1372 34.1424 19.8786Z" fill="#8CC84B"/>
</svg>
