<svg width="117" height="62" viewBox="0 0 117 62" fill="none" xmlns="http://www.w3.org/2000/svg">
<path d="M63.4815 8.63785H64.6698L68.0562 5.24972L68.2225 3.81126C66.2826 2.09812 63.9381 0.90806 61.4106 0.353501C58.8832 -0.201058 56.2561 -0.10181 53.7776 0.641868C51.2991 1.38555 49.051 2.7491 47.2457 4.60373C45.4404 6.45836 44.1375 8.74284 43.46 11.2414C43.8372 11.0866 44.2551 11.0616 44.6482 11.17L51.4211 10.0525C51.4211 10.0525 51.7656 9.48191 51.9439 9.51757C53.3951 7.92297 55.4006 6.94366 57.5499 6.78012C59.6992 6.61658 61.8297 7.28117 63.5053 8.63785H63.4815Z" fill="#EA4335"/>
<path d="M72.8805 11.2412C72.1021 8.37335 70.504 5.79518 68.2821 3.823L63.5292 8.57826C64.5197 9.38804 65.3136 10.4123 65.8508 11.5738C66.388 12.7352 66.6546 14.0036 66.6305 15.2832V16.1272C67.186 16.1272 67.736 16.2367 68.2492 16.4494C68.7625 16.6621 69.2288 16.9738 69.6216 17.3668C70.0144 17.7598 70.326 18.2264 70.5385 18.7398C70.7511 19.2533 70.8605 19.8037 70.8605 20.3594C70.8605 20.9152 70.7511 21.4655 70.5385 21.979C70.326 22.4925 70.0144 22.959 69.6216 23.352C69.2288 23.745 68.7625 24.0568 68.2492 24.2695C67.736 24.4822 67.186 24.5916 66.6305 24.5916H58.1703L57.3267 25.4476V30.5238L58.1703 31.3679H66.6305C68.9929 31.3863 71.2986 30.6434 73.2063 29.2491C75.1141 27.8549 76.5226 25.8833 77.2236 23.626C77.9246 21.3687 77.8807 18.9456 77.0986 16.7152C76.3164 14.4848 74.8375 12.5655 72.8805 11.2412Z" fill="#4285F4"/>
<path d="M49.6983 31.3203H58.1585V24.544H49.6983C49.0956 24.5439 48.4999 24.4141 47.9516 24.1636L46.7634 24.5321L43.3532 27.9202L43.0562 29.1091C44.9685 30.5538 47.302 31.3307 49.6983 31.3203Z" fill="#34A853"/>
<path d="M49.698 9.33918C47.4057 9.35288 45.1749 10.0825 43.3172 11.4263C41.4595 12.77 40.0677 14.6607 39.3361 16.8342C38.6045 19.0078 38.5698 21.3556 39.2366 23.5499C39.9035 25.7442 41.2387 27.6753 43.0558 29.0735L47.9632 24.1637C47.3395 23.8818 46.7936 23.4528 46.3721 22.9134C45.9507 22.374 45.6663 21.7403 45.5435 21.0668C45.4206 20.3932 45.4629 19.6999 45.6667 19.0464C45.8705 18.3928 46.2298 17.7984 46.7137 17.3143C47.1976 16.8302 47.7916 16.4707 48.4449 16.2668C49.0981 16.0629 49.7911 16.0206 50.4643 16.1435C51.1375 16.2664 51.7708 16.5509 52.31 16.9726C52.8491 17.3942 53.2779 17.9405 53.5597 18.5644L58.4671 13.6546C57.4371 12.3074 56.1095 11.2168 54.5883 10.4682C53.067 9.71954 51.3933 9.33313 49.698 9.33918Z" fill="#FBBC05"/>
<path d="M8.11444 57.3707C7.05292 57.3842 5.99959 57.1832 5.01755 56.7798C4.03551 56.3764 3.14496 55.7788 2.39925 55.0228C1.63005 54.2989 1.01963 53.423 0.606714 52.4506C0.193795 51.4782 -0.0126106 50.4305 0.000595999 49.3741C-0.0120827 48.3177 0.194561 47.2702 0.607447 46.2979C1.02033 45.3256 1.63047 44.4496 2.39925 43.7254C3.14131 42.9616 4.03022 42.356 5.01243 41.945C5.99464 41.5341 7.04983 41.3263 8.11444 41.3342C9.12884 41.3207 10.1358 41.509 11.0768 41.8883C12.0178 42.2675 12.8741 42.8301 13.5958 43.5434L12.0545 45.1115C10.9989 44.0909 9.58222 43.5302 8.11444 43.5521C7.35304 43.5427 6.59802 43.6919 5.89736 43.9902C5.1967 44.2885 4.56572 44.7294 4.04453 45.2848C3.50286 45.8225 3.07554 46.4642 2.78832 47.1715C2.5011 47.8787 2.35992 48.6368 2.37327 49.4001C2.36691 50.1546 2.5115 50.9029 2.79852 51.6007C3.08554 52.2985 3.50919 52.9318 4.04453 53.4634C5.11687 54.5325 6.56396 55.1408 8.07777 55.1586C9.59158 55.1764 11.0526 54.6023 12.1497 53.5587C12.829 52.8144 13.2457 51.868 13.336 50.8642H8.14042V48.6463H15.4922C15.5645 49.093 15.5935 49.5456 15.5788 49.9979C15.6245 50.9339 15.4801 51.8695 15.1541 52.7481C14.8282 53.6267 14.3275 54.43 13.6824 55.1095C12.9652 55.8566 12.0986 56.4441 11.1393 56.8337C10.1799 57.2233 9.14923 57.4063 8.11444 57.3707ZM25.2081 55.8979C24.2214 56.8441 22.9075 57.3724 21.5408 57.3724C20.1741 57.3724 18.8602 56.8441 17.8736 55.8979C17.3825 55.4215 16.9957 54.8482 16.7378 54.2143C16.48 53.5804 16.3566 52.8999 16.3755 52.2158C16.3571 51.5318 16.4807 50.8513 16.7386 50.2176C16.9964 49.5838 17.3829 49.0104 17.8736 48.5337C18.8612 47.5895 20.1747 47.0625 21.5408 47.0625C22.9069 47.0625 24.2204 47.5895 25.2081 48.5337C25.6987 49.0104 26.0852 49.5838 26.343 50.2176C26.6009 50.8513 26.7245 51.5318 26.7061 52.2158C26.724 52.9005 26.5992 53.5815 26.3398 54.2154C26.0804 54.8492 25.692 55.4222 25.1994 55.8979H25.2081ZM19.4929 54.451C19.7553 54.7314 20.0725 54.9549 20.4247 55.1078C20.777 55.2606 21.1569 55.3394 21.5408 55.3394C21.9248 55.3394 22.3046 55.2606 22.6569 55.1078C23.0092 54.9549 23.3263 54.7314 23.5888 54.451C23.8749 54.1551 24.0989 53.8049 24.2477 53.421C24.3964 53.0371 24.4668 52.6273 24.4547 52.2158C24.4675 51.8029 24.3974 51.3916 24.2487 51.0062C24.1 50.6208 23.8756 50.2691 23.5888 49.9719C23.3228 49.6944 23.0036 49.4735 22.6501 49.3227C22.2967 49.1718 21.9164 49.094 21.5322 49.094C21.1479 49.094 20.7676 49.1718 20.4142 49.3227C20.0607 49.4735 19.7415 49.6944 19.4756 49.9719C19.1887 50.2691 18.9644 50.6208 18.8156 51.0062C18.6669 51.3916 18.5969 51.8029 18.6096 52.2158C18.5987 52.6279 18.6704 53.0381 18.8206 53.422C18.9709 53.8059 19.1965 54.1558 19.4842 54.451H19.4929ZM36.4826 55.8979C35.4959 56.8441 34.1821 57.3724 32.8153 57.3724C31.4486 57.3724 30.1347 56.8441 29.1481 55.8979C28.657 55.4215 28.2702 54.8482 28.0124 54.2143C27.7545 53.5804 27.6311 52.8999 27.65 52.2158C27.6316 51.5318 27.7552 50.8513 28.0131 50.2176C28.271 49.5838 28.6574 49.0104 29.1481 48.5337C30.1347 47.5875 31.4486 47.0592 32.8153 47.0592C34.1821 47.0592 35.4959 47.5875 36.4826 48.5337C36.9732 49.0104 37.3597 49.5838 37.6176 50.2176C37.8754 50.8513 37.9991 51.5318 37.9806 52.2158C37.9996 52.8999 37.8762 53.5804 37.6183 54.2143C37.3604 54.8482 36.9737 55.4215 36.4826 55.8979ZM30.7674 54.451C31.0298 54.7314 31.347 54.9549 31.6992 55.1078C32.0515 55.2606 32.4314 55.3394 32.8153 55.3394C33.1993 55.3394 33.5791 55.2606 33.9314 55.1078C34.2837 54.9549 34.6008 54.7314 34.8633 54.451C35.1494 54.1551 35.3735 53.8049 35.5222 53.421C35.6709 53.0371 35.7413 52.6273 35.7292 52.2158C35.742 51.8029 35.6719 51.3916 35.5232 51.0062C35.3745 50.6208 35.1501 50.2691 34.8633 49.9719C34.5974 49.6944 34.2781 49.4735 33.9246 49.3227C33.5712 49.1718 33.1909 49.094 32.8067 49.094C32.4224 49.094 32.0421 49.1718 31.6887 49.3227C31.3353 49.4735 31.016 49.6944 30.7501 49.9719C30.4633 50.2691 30.2389 50.6208 30.0901 51.0062C29.9414 51.3916 29.8714 51.8029 29.8841 52.2158C29.8732 52.6279 29.9449 53.0381 30.0952 53.422C30.2454 53.8059 30.471 54.1558 30.7587 54.451H30.7674ZM43.895 61.9971C42.8571 62.0301 41.8393 61.706 41.0114 61.0788C40.2764 60.5259 39.6975 59.7915 39.3315 58.9475L41.3059 58.1244C41.5207 58.6288 41.8569 59.0723 42.2844 59.4153C42.7419 59.7844 43.3162 59.9779 43.9037 59.9611C44.2762 59.9838 44.6493 59.9259 44.9974 59.7913C45.3456 59.6568 45.6607 59.4488 45.9213 59.1814C46.443 58.5518 46.7006 57.7444 46.64 56.9288V56.1838H46.5621C46.2321 56.5759 45.8154 56.8857 45.3449 57.0887C44.8745 57.2918 44.3632 57.3824 43.8517 57.3534C43.2016 57.3553 42.5581 57.2224 41.9619 56.9629C41.3657 56.7034 40.8298 56.3231 40.388 55.8459C39.9086 55.3725 39.5301 54.8067 39.2756 54.1827C39.0211 53.5587 38.8958 52.8896 38.9072 52.2158C38.8952 51.538 39.0202 50.8648 39.2747 50.2366C39.5291 49.6083 39.9078 49.038 40.388 48.5597C40.8287 48.0805 41.3642 47.6983 41.9605 47.4372C42.5568 47.1762 43.2008 47.0422 43.8517 47.0436C44.4025 47.0426 44.9467 47.1639 45.445 47.3988C45.8761 47.5871 46.2604 47.8681 46.5708 48.2218H46.6487V47.3988H48.7962V56.6256C48.8527 57.3555 48.7598 58.0893 48.5231 58.782C48.2863 59.4747 47.9108 60.1118 47.4194 60.6542C46.9513 61.1022 46.3983 61.4519 45.793 61.6825C45.1877 61.9131 44.5423 62.0201 43.895 61.9971ZM44.0509 55.3434C44.4206 55.3515 44.7877 55.2781 45.1259 55.1284C45.4641 54.9786 45.7652 54.7563 46.0079 54.477C46.5422 53.8644 46.8239 53.0716 46.7959 52.2591C46.828 51.4329 46.5465 50.6251 46.0079 49.9979C45.7656 49.7182 45.4646 49.4955 45.1262 49.3457C44.7879 49.1959 44.4207 49.1228 44.0509 49.1315C43.671 49.1237 43.2938 49.1969 42.9445 49.3463C42.5951 49.4957 42.2815 49.7178 42.0246 49.9979C41.4518 50.6025 41.1406 51.4089 41.1586 52.2418C41.1498 52.6503 41.2218 53.0566 41.3704 53.4372C41.519 53.8178 41.7413 54.1653 42.0246 54.4597C42.2803 54.7425 42.5932 54.9675 42.9426 55.1199C43.292 55.2723 43.6698 55.3484 44.0509 55.3434ZM52.615 41.9146V57.0588H50.3549V41.9146H52.615ZM58.8151 57.3707C58.1383 57.3881 57.4651 57.2655 56.8378 57.0106C56.2105 56.7556 55.6425 56.3739 55.1695 55.8892C54.6895 55.4081 54.3123 54.8343 54.0607 54.2029C53.8092 53.5714 53.6885 52.8953 53.7061 52.2158C53.6805 51.5346 53.7923 50.8552 54.0348 50.2181C54.2773 49.581 54.6455 48.9993 55.1176 48.5077C55.5624 48.0386 56.1003 47.6675 56.6967 47.4184C57.2932 47.1692 57.9351 47.0475 58.5813 47.0609C59.1756 47.0546 59.7648 47.1696 60.3132 47.3988C60.8071 47.5982 61.2572 47.8926 61.6381 48.2651C61.9651 48.581 62.2556 48.9326 62.504 49.3134C62.705 49.635 62.876 49.9743 63.0149 50.3271L63.2487 50.9162L56.3212 53.7666C56.5307 54.2482 56.8812 54.655 57.3264 54.9334C57.7716 55.2118 58.2906 55.3487 58.8151 55.3261C59.3254 55.3274 59.8274 55.1965 60.2721 54.946C60.7167 54.6954 61.0889 54.3339 61.3523 53.8965L63.0842 55.0661C62.6422 55.6988 62.0766 56.2352 61.4216 56.6429C60.6426 57.1353 59.7364 57.3884 58.8151 57.3707ZM55.9229 52.0598L60.5297 50.1452C60.3877 49.8076 60.1339 49.5292 59.8109 49.3568C59.4493 49.1524 59.0399 49.0478 58.6246 49.0535C57.9199 49.0718 57.2508 49.3676 56.7628 49.8766C56.4708 50.1562 56.2441 50.4968 56.0989 50.8743C55.9537 51.2517 55.8936 51.6565 55.9229 52.0598ZM75.0861 57.3707C74.1249 57.3873 73.1703 57.2094 72.2795 56.8477C71.3888 56.486 70.5803 55.9479 69.9025 55.2658C69.2248 54.5837 68.6918 53.7716 68.3356 52.8782C67.9794 51.9849 67.8072 51.0287 67.8295 50.0672C67.8072 49.1056 67.9794 48.1495 68.3356 47.2562C68.6918 46.3628 69.2248 45.5507 69.9025 44.8686C70.5803 44.1865 71.3888 43.6484 72.2795 43.2867C73.1703 42.925 74.1249 42.7471 75.0861 42.7637C76.059 42.7333 77.0261 42.9232 77.9153 43.3192C78.8045 43.7153 79.5927 44.3072 80.2211 45.0509L78.9742 46.2638C78.5128 45.6833 77.921 45.2198 77.2469 44.9112C76.5728 44.6026 75.8355 44.4575 75.0948 44.4878C74.3817 44.4717 73.6728 44.6 73.0106 44.865C72.3484 45.13 71.7466 45.5263 71.2413 46.0299C70.716 46.5584 70.3056 47.1899 70.0359 47.8846C69.7662 48.5794 69.643 49.3225 69.674 50.0672C69.643 50.8119 69.7662 51.555 70.0359 52.2497C70.3056 52.9445 70.716 53.576 71.2413 54.1045C71.7466 54.6081 72.3484 55.0043 73.0106 55.2693C73.6728 55.5344 74.3817 55.6627 75.0948 55.6466C75.9223 55.6559 76.7413 55.4784 77.4909 55.1275C78.2405 54.7765 78.9014 54.261 79.4245 53.6193L80.6714 54.8669C80.0185 55.648 79.1989 56.2727 78.2728 56.6949C77.2745 57.156 76.1855 57.387 75.0861 57.3707ZM84.0226 57.0588H82.2301V43.0669H84.0226V57.0588ZM86.9495 48.6377C87.8887 47.7044 89.1587 47.1807 90.4825 47.1807C91.8062 47.1807 93.0763 47.7044 94.0155 48.6377C94.4748 49.1229 94.8337 49.6941 95.0715 50.3186C95.3093 50.9431 95.4212 51.6085 95.401 52.2764C95.4212 52.9444 95.3093 53.6098 95.0715 54.2342C94.8337 54.8587 94.4748 55.43 94.0155 55.9152C93.0763 56.8484 91.8062 57.3722 90.4825 57.3722C89.1587 57.3722 87.8887 56.8484 86.9495 55.9152C86.4902 55.43 86.1313 54.8587 85.8935 54.2342C85.6557 53.6098 85.5437 52.9444 85.5639 52.2764C85.5437 51.6085 85.6557 50.9431 85.8935 50.3186C86.1313 49.6941 86.4902 49.1229 86.9495 48.6377ZM88.283 54.7889C88.5654 55.0875 88.9058 55.3254 89.2832 55.488C89.6606 55.6505 90.0672 55.7344 90.4781 55.7344C90.8891 55.7344 91.2957 55.6505 91.6731 55.488C92.0505 55.3254 92.3909 55.0875 92.6733 54.7889C92.9866 54.4525 93.2299 54.0572 93.389 53.6258C93.548 53.1945 93.6197 52.7358 93.5999 52.2764C93.6197 51.8171 93.548 51.3584 93.389 50.927C93.2299 50.4957 92.9866 50.1003 92.6733 49.764C92.3909 49.4653 92.0505 49.2275 91.6731 49.0649C91.2957 48.9024 90.8891 48.8185 90.4781 48.8185C90.0672 48.8185 89.6606 48.9024 89.2832 49.0649C88.9058 49.2275 88.5654 49.4653 88.283 49.764C87.9697 50.1003 87.7264 50.4957 87.5673 50.927C87.4083 51.3584 87.3366 51.8171 87.3564 52.2764C87.3389 52.7349 87.4125 53.1924 87.5731 53.6222C87.7336 54.052 87.9779 54.4456 88.2917 54.7802L88.283 54.7889ZM105.333 57.0588H103.601V55.7332H103.549C103.241 56.2367 102.805 56.6493 102.285 56.9288C101.746 57.2416 101.133 57.406 100.51 57.4053C100.004 57.44 99.4965 57.3598 99.0257 57.1708C98.5549 56.9818 98.1328 56.6888 97.791 56.3137C97.135 55.4836 96.8054 54.442 96.8644 53.3854V47.4941H98.6569V53.0562C98.6569 54.8409 99.4449 55.7332 101.021 55.7332C101.371 55.7442 101.719 55.6713 102.035 55.5206C102.351 55.3699 102.627 55.1457 102.839 54.8669C103.304 54.2778 103.552 53.5466 103.541 52.7963V47.4941H105.333V57.0588ZM111.421 57.3707C110.813 57.3727 110.212 57.2429 109.658 56.9901C109.105 56.7373 108.614 56.3677 108.217 55.9065C107.319 54.9145 106.838 53.6142 106.875 52.2764C106.838 50.9387 107.319 49.6384 108.217 48.6463C108.614 48.1852 109.105 47.8155 109.658 47.5628C110.212 47.31 110.813 47.1802 111.421 47.1822C112.102 47.1714 112.775 47.3323 113.378 47.65C113.908 47.9167 114.356 48.3206 114.677 48.8196H114.755L114.677 47.4941V43.0669H116.469V57.0588H114.737V55.7332H114.659C114.339 56.2323 113.89 56.6362 113.361 56.9028C112.763 57.2177 112.096 57.3785 111.421 57.3707ZM111.715 55.7332C112.12 55.7392 112.522 55.6588 112.894 55.4975C113.266 55.3361 113.599 55.0976 113.871 54.7976C114.48 54.1039 114.792 53.1981 114.737 52.2764C114.792 51.3548 114.48 50.449 113.871 49.7553C113.597 49.4537 113.263 49.2127 112.89 49.0478C112.517 48.8829 112.114 48.7977 111.707 48.7977C111.299 48.7977 110.896 48.8829 110.523 49.0478C110.15 49.2127 109.816 49.4537 109.542 49.7553C109.239 50.0965 109.007 50.494 108.859 50.9252C108.71 51.3563 108.648 51.8126 108.676 52.2678C108.648 52.723 108.71 53.1792 108.859 53.6104C109.007 54.0415 109.239 54.4391 109.542 54.7802C109.815 55.0856 110.15 55.3287 110.525 55.4932C110.9 55.6576 111.306 55.7395 111.715 55.7332Z" fill="white"/>
</svg>
