<svg width="128" height="66" viewBox="0 0 128 66" fill="none" xmlns="http://www.w3.org/2000/svg">
<path d="M42.4863 5.77924L60.1007 3.41173V20.0319H42.4879L42.4863 5.77924ZM60.1007 22.1588V38.591L42.4888 36.2271L42.4884 22.1596H60.1011L60.1007 22.1588ZM62.0484 3.15048L85.4863 0V20.0319H62.0484V3.15048ZM85.4863 22.1588V42L62.0484 38.8519V22.1588H85.4863Z" fill="#0DADEA"/>
<path d="M13.4765 65.7936H11.411V57.8077C11.411 57.153 11.4519 56.3536 11.5336 55.4062H11.499C11.3701 55.9454 11.2564 56.3325 11.1576 56.5686L7.41218 65.7936H5.97688L2.22236 56.6377C2.11747 56.3682 2.00642 55.9578 1.89001 55.4072H1.85546C1.90256 55.9008 1.92559 56.7066 1.92559 57.8251V65.7936H0V53.4532H2.93168L6.23108 61.6718C6.48177 62.3028 6.64527 62.7737 6.72075 63.083H6.76435C6.98029 62.4346 7.1551 61.9523 7.2894 61.6368L10.6503 53.4532H13.4771L13.4763 65.7936H13.4765ZM17.3536 55.131C17.0212 55.131 16.736 55.0253 16.5005 54.8128C16.264 54.6006 16.1459 54.3306 16.1459 54.0038C16.1459 53.677 16.264 53.4043 16.5005 53.1859C16.737 52.9683 17.0212 52.8589 17.3536 52.8589C17.6974 52.8589 17.9899 52.9683 18.2288 53.1859C18.4678 53.4043 18.5879 53.676 18.5879 54.0038C18.5879 54.3131 18.4678 54.5788 18.2288 54.7997C17.9888 55.021 17.6974 55.131 17.3536 55.131ZM18.3594 65.7936H16.3298V56.9811H18.3596V65.7936H18.3594ZM27.4352 65.3891C26.7181 65.7963 25.8685 65.9999 24.8883 65.9999C23.5581 65.9999 22.4846 65.5911 21.6677 64.774C20.8512 63.9569 20.4424 62.8969 20.4424 61.5941C20.4424 60.1425 20.8814 58.9768 21.7594 58.0958C22.6376 57.2152 23.8113 56.7746 25.2819 56.7746C26.0986 56.7746 26.8192 56.9153 27.4432 57.1969V59.0554C26.8184 58.5968 26.1537 58.3668 25.4483 58.3668C24.5907 58.3668 23.8878 58.6527 23.3395 59.2232C22.7912 59.7939 22.5164 60.5411 22.5164 61.4647C22.5164 62.377 22.7741 63.097 23.2905 63.6247C23.8067 64.1527 24.4998 64.4165 25.3691 64.4165C26.0986 64.4165 26.7863 64.1615 27.4342 63.6511L27.4352 65.3891ZM34.6545 58.8833C34.4091 58.6936 34.0564 58.5994 33.5953 58.5994C32.9944 58.5994 32.4924 58.8658 32.0899 59.3997C31.6872 59.9327 31.4857 60.6589 31.4857 61.5766V65.7936H29.455V56.9811H31.4857V58.7969H31.5202C31.7185 58.1772 32.0233 57.6939 32.4346 57.347C32.8459 57.0002 33.3055 56.8263 33.8129 56.8263C34.1808 56.8263 34.4607 56.8814 34.6536 56.9898L34.6545 58.8833ZM40.0804 65.9999C38.6977 65.9999 37.594 65.5884 36.7676 64.7651C35.9421 63.9421 35.5289 62.8504 35.5289 61.491C35.5289 60.0105 35.959 58.8545 36.8201 58.0226C37.6812 57.1907 38.8398 56.7746 40.299 56.7746C41.6995 56.7746 42.7899 57.1794 43.5719 57.9884C44.354 58.7977 44.7441 59.9188 44.7441 61.3528C44.7441 62.7589 44.3229 63.8845 43.4795 64.7302C42.6371 65.5771 41.5042 65.9999 40.0804 65.9999ZM40.1764 58.3668C39.383 58.3668 38.7555 58.6396 38.2953 59.1839C37.834 59.7291 37.6038 60.4806 37.6038 61.4384C37.6038 62.362 37.8375 63.0892 38.3041 63.6196C38.7705 64.15 39.3953 64.4155 40.1772 64.4155C40.9773 64.4155 41.5912 64.1543 42.0195 63.6328C42.4477 63.1102 42.6628 62.3673 42.6628 61.4034C42.6628 60.4343 42.4488 59.6855 42.0195 59.1576C41.5903 58.6307 40.9762 58.3668 40.1764 58.3668ZM46.2592 65.5185V63.6685C47.0181 64.2366 47.8551 64.5204 48.7703 64.5204C49.9961 64.5204 50.6081 64.1648 50.6081 63.4534C50.6081 63.2525 50.5559 63.0822 50.451 62.9413C50.3461 62.8007 50.2048 62.6758 50.0261 62.5674C49.8474 62.4591 49.6378 62.3612 49.3961 62.2748C49.1535 62.1882 48.8841 62.0911 48.5865 61.9819C48.246 61.8511 47.9142 61.6987 47.5931 61.5258C47.298 61.365 47.0537 61.1834 46.8581 60.9798C46.6655 60.781 46.5153 60.5452 46.4165 60.2867C46.317 60.029 46.2681 59.7273 46.2681 59.3832C46.2681 58.9585 46.3703 58.5844 46.5745 58.2603C46.7791 57.936 47.0527 57.6635 47.3967 57.4432C47.7414 57.2221 48.1315 57.0562 48.5696 56.9443C49.0128 56.8317 49.4684 56.7753 49.9257 56.7765C50.7539 56.7765 51.4949 56.8997 52.1483 57.1461V58.8929C51.5181 58.4682 50.7948 58.2558 49.9782 58.2558C49.7213 58.2558 49.4893 58.2821 49.2824 58.3327C49.0753 58.3843 48.8984 58.4561 48.7526 58.5478C48.607 58.6396 48.4933 58.7496 48.4114 58.8789C48.3303 59.006 48.2877 59.1539 48.2889 59.3047C48.2889 59.4941 48.3298 59.6549 48.4114 59.7869C48.4933 59.9188 48.614 60.035 48.7748 60.1355C48.9349 60.2361 49.1278 60.3278 49.3525 60.4107C49.5773 60.4938 49.835 60.5847 50.1275 60.6818C50.4808 60.8222 50.8269 60.9803 51.1644 61.1554C51.471 61.316 51.7322 61.4978 51.9482 61.7014C52.1608 61.9002 52.3305 62.1405 52.4467 62.4074C52.5633 62.674 52.6219 62.9913 52.6219 63.3582C52.6219 63.8057 52.517 64.1952 52.3064 64.5284C52.0967 64.8614 51.8159 65.1365 51.4667 65.3541C51.1165 65.5725 50.7122 65.7342 50.2546 65.8399C49.7959 65.9466 49.3135 65.9991 48.8061 65.9991C47.8251 65.9999 46.9764 65.8399 46.2592 65.5185ZM58.5287 65.9999C57.146 65.9999 56.0414 65.5884 55.2157 64.7651C54.3902 63.9421 53.9778 62.8504 53.9778 61.491C53.9778 60.0105 54.4081 58.8545 55.2692 58.0226C56.1292 57.1907 57.289 56.7746 58.7473 56.7746C60.1478 56.7746 61.238 57.1794 62.0202 57.9884C62.8021 58.7977 63.193 59.9188 63.193 61.3528C63.193 62.7589 62.7718 63.8845 61.9286 64.7302C61.0854 65.5771 59.9514 65.9999 58.5287 65.9999ZM58.6247 58.3668C57.8311 58.3668 57.2036 58.6396 56.7425 59.1839C56.2812 59.7291 56.0511 60.4806 56.0511 61.4384C56.0511 62.362 56.2849 63.0892 56.7514 63.6196C57.218 64.15 57.8426 64.4155 58.6247 64.4155C59.4235 64.4155 60.0376 64.1543 60.4668 63.6328C60.896 63.1102 61.1101 62.3673 61.1101 61.4034C61.1101 60.4343 60.896 59.6855 60.4668 59.1576C60.0376 58.6307 59.4235 58.3668 58.6247 58.3668ZM70.3341 54.3742C70.0606 54.2195 69.7478 54.1418 69.3976 54.1418C68.4112 54.1418 67.9189 54.6897 67.9189 55.7854V56.9817H70.0018V58.5478H67.9277V65.7936H65.8972V58.5478H64.3661V56.9817H65.8972V55.553C65.8972 54.6234 66.2066 53.8911 66.825 53.3545C67.4434 52.8177 68.2167 52.5496 69.1444 52.5496C69.6464 52.5496 70.0427 52.6039 70.3341 52.7131V54.3742ZM76.1887 65.6992C75.7924 65.8942 75.2698 65.9921 74.6219 65.9921C72.8837 65.9921 72.0146 65.1715 72.0146 63.5314V58.5487H70.5182V56.9828H72.0146V54.943L74.0453 54.3752V56.9828H76.1895V58.5487H74.0453V62.9543C74.0453 63.4761 74.1411 63.8491 74.334 64.0729C74.5269 64.2966 74.8475 64.4085 75.2965 64.4085C75.6404 64.4085 75.9382 64.3114 76.1887 64.1157V65.6992ZM93.4114 65.7936H91.1276L89.9989 62.6522H85.0635L83.9784 65.7936H81.7026L86.4017 53.4532H88.7468L93.4112 65.7936H93.4114ZM89.4471 60.9833L87.7062 56.0608C87.6538 55.9 87.5978 55.6423 87.54 55.2865H87.5055C87.453 55.6135 87.3944 55.872 87.3303 56.0608L85.6064 60.9833H89.4471ZM101.533 57.8163L96.6931 64.2356H101.515V65.7936H93.8484V65.0448L98.7929 58.539H94.3213V56.9809H101.533V57.8163ZM111.062 65.7936H109.033V64.3991H108.998C108.409 65.466 107.493 65.9999 106.251 65.9999C104.133 65.9999 103.074 64.7495 103.074 62.2476V56.9809H105.104V62.0414C105.104 63.6249 105.725 64.4165 106.968 64.4165C107.569 64.4165 108.063 64.1989 108.452 63.7629C108.84 63.3269 109.034 62.7562 109.034 62.0502V56.9809H111.064L111.062 65.7936ZM118.913 58.8833C118.667 58.6936 118.315 58.5994 117.853 58.5994C117.253 58.5994 116.75 58.8658 116.348 59.3997C115.946 59.9327 115.744 60.6589 115.744 61.5766V65.7936H113.714V56.9811H115.744V58.7969H115.778C115.977 58.1772 116.281 57.6939 116.693 57.347C117.104 57.0002 117.564 56.8263 118.071 56.8263C118.438 56.8263 118.719 56.8814 118.911 56.9898L118.913 58.8833H118.913ZM127.953 61.9295H121.844C121.867 62.7439 122.122 63.3722 122.61 63.8144C123.097 64.2557 123.766 64.4768 124.618 64.4768C125.575 64.4768 126.453 64.1954 127.252 63.6336V65.2423C126.436 65.7474 125.356 65.9999 124.014 65.9999C122.695 65.9999 121.662 65.5997 120.912 64.7993C120.162 63.9988 119.788 62.8733 119.788 61.4219C119.788 60.0508 120.2 58.933 121.027 58.0697C121.852 57.2063 122.878 56.7746 124.103 56.7746C125.328 56.7746 126.276 57.1619 126.947 57.936C127.618 58.7103 127.953 59.7859 127.953 61.1632L127.953 61.9295H127.953ZM125.992 60.5183C125.984 59.8009 125.815 59.2432 125.476 58.8448C125.137 58.4464 124.671 58.2472 124.076 58.2472C123.493 58.2472 122.998 58.4569 122.592 58.8754C122.187 59.294 121.938 59.842 121.844 60.5191H125.992V60.5183Z" fill="white"/>
</svg>
