<svg width="69" height="41" viewBox="0 0 69 41" fill="none" xmlns="http://www.w3.org/2000/svg">
<path d="M19.318 14.8904C19.318 15.7342 19.4092 16.4182 19.5688 16.9199C19.7512 17.4216 19.9792 17.9689 20.2983 18.5617C20.4123 18.7442 20.4579 18.9266 20.4579 19.0862C20.4579 19.3142 20.3211 19.5423 20.0248 19.7703L18.5884 20.728C18.3832 20.8649 18.1781 20.9333 17.9957 20.9333C17.7677 20.9333 17.5397 20.8192 17.3117 20.614C16.9925 20.272 16.7189 19.9071 16.4909 19.5423C16.263 19.1546 16.035 18.7214 15.7842 18.1969C14.0059 20.2948 11.7716 21.3437 9.08134 21.3437C7.16624 21.3437 5.63872 20.7964 4.52158 19.7019C3.40444 18.6073 2.83447 17.1479 2.83447 15.3237C2.83447 13.3854 3.51844 11.812 4.90916 10.6263C6.29989 9.44049 8.14659 8.84761 10.4949 8.84761C11.27 8.84761 12.068 8.91602 12.9115 9.03003C13.7551 9.14405 14.6214 9.32648 15.5334 9.5317V7.86707C15.5334 6.13404 15.1686 4.92547 14.4619 4.21858C13.7323 3.51168 12.5012 3.16963 10.7457 3.16963C9.9477 3.16963 9.12694 3.26085 8.28338 3.46607C7.43983 3.6713 6.61907 3.92214 5.82111 4.24138C5.45633 4.401 5.18275 4.49221 5.02316 4.53782C4.86357 4.58343 4.74957 4.60623 4.65838 4.60623C4.33919 4.60623 4.1796 4.3782 4.1796 3.89933V2.78198C4.1796 2.41713 4.2252 2.14349 4.33919 1.98387C4.45319 1.82425 4.65838 1.66463 4.97756 1.50501C5.77552 1.09455 6.73307 0.752503 7.85021 0.478865C8.96735 0.182425 10.1529 0.0456062 11.4068 0.0456062C14.1199 0.0456062 16.1034 0.66129 17.3801 1.89266C18.634 3.12403 19.2724 4.99388 19.2724 7.50223V14.8904H19.318ZM10.0617 18.3565C10.814 18.3565 11.5892 18.2197 12.41 17.9461C13.2307 17.6724 13.9603 17.1707 14.5759 16.4867C14.9406 16.0534 15.2142 15.5745 15.351 15.0273C15.4878 14.48 15.579 13.8187 15.579 13.0434V12.0857C14.9178 11.926 14.2111 11.7892 13.4815 11.698C12.7519 11.6068 12.0452 11.5612 11.3384 11.5612C9.8109 11.5612 8.69376 11.8576 7.9414 12.4733C7.18904 13.089 6.82426 13.9555 6.82426 15.0957C6.82426 16.1674 7.09785 16.9655 7.66782 17.5128C8.21499 18.0829 9.01295 18.3565 10.0617 18.3565ZM28.3691 20.8192C27.9587 20.8192 27.6852 20.7508 27.5028 20.5912C27.3204 20.4544 27.1608 20.1352 27.024 19.7019L21.6663 2.07508C21.5295 1.61902 21.4611 1.32258 21.4611 1.16296C21.4611 0.798109 21.6435 0.592881 22.0083 0.592881H24.2425C24.6757 0.592881 24.9721 0.66129 25.1317 0.820912C25.3141 0.957731 25.4509 1.27697 25.5877 1.71023L29.4179 16.8059L32.9745 1.71023C33.0885 1.25417 33.2253 0.957731 33.4077 0.820912C33.59 0.684093 33.9092 0.592881 34.3196 0.592881H36.1435C36.5767 0.592881 36.8731 0.66129 37.0555 0.820912C37.2379 0.957731 37.3974 1.27697 37.4886 1.71023L41.0908 16.9883L45.035 1.71023C45.1718 1.25417 45.3314 0.957731 45.491 0.820912C45.6734 0.684093 45.9698 0.592881 46.3802 0.592881H48.5005C48.8652 0.592881 49.0704 0.775306 49.0704 1.16296C49.0704 1.27697 49.0476 1.39099 49.0248 1.52781C49.002 1.66463 48.9564 1.84705 48.8652 2.09789L43.3707 19.7247C43.2339 20.1808 43.0743 20.4772 42.892 20.614C42.7096 20.7508 42.4132 20.842 42.0256 20.842H40.0649C39.6317 20.842 39.3353 20.7736 39.1529 20.614C38.9706 20.4544 38.811 20.158 38.7198 19.7019L35.186 4.99388L31.6749 19.6791C31.561 20.1352 31.4242 20.4316 31.2418 20.5912C31.0594 20.7508 30.7402 20.8192 30.3298 20.8192H28.3691ZM57.6656 21.4349C56.48 21.4349 55.2945 21.2981 54.1546 21.0245C53.0146 20.7508 52.1255 20.4544 51.5327 20.1123C51.1679 19.9071 50.9171 19.6791 50.8259 19.4739C50.7347 19.2686 50.6891 19.0406 50.6891 18.8354V17.6724C50.6891 17.1936 50.8715 16.9655 51.2135 16.9655C51.3503 16.9655 51.4871 16.9883 51.6239 17.0339C51.7607 17.0795 51.9659 17.1707 52.1939 17.262C52.969 17.604 53.8126 17.8776 54.7017 18.0601C55.6137 18.2425 56.5028 18.3337 57.4148 18.3337C58.8511 18.3337 59.9682 18.0829 60.7434 17.5812C61.5186 17.0795 61.9289 16.3498 61.9289 15.4149C61.9289 14.7764 61.7238 14.2519 61.3134 13.8187C60.903 13.3854 60.1278 12.9978 59.0107 12.6329L55.7049 11.6068C54.0406 11.0823 52.8094 10.307 52.0571 9.28087C51.3047 8.27753 50.9171 7.16018 50.9171 5.97442C50.9171 5.01669 51.1223 4.17297 51.5327 3.44327C51.9431 2.71357 52.4902 2.07508 53.1742 1.57342C53.8582 1.04894 54.6333 0.66129 55.5453 0.387653C56.4572 0.114016 57.4148 0 58.4179 0C58.9195 0 59.4439 0.0228031 59.9454 0.0912125C60.4698 0.159622 60.9486 0.250834 61.4274 0.342047C61.8833 0.456062 62.3165 0.570078 62.7269 0.706897C63.1373 0.843715 63.4565 0.980534 63.6844 1.11735C64.0036 1.29978 64.2316 1.4822 64.3684 1.68743C64.5052 1.86986 64.5736 2.12069 64.5736 2.43993V3.51168C64.5736 3.99055 64.3912 4.24138 64.0492 4.24138C63.8668 4.24138 63.5705 4.15017 63.1829 3.96774C61.8833 3.37486 60.4242 3.07842 58.8055 3.07842C57.506 3.07842 56.48 3.28365 55.7733 3.71691C55.0665 4.15017 54.7017 4.81146 54.7017 5.74639C54.7017 6.38487 54.9297 6.93215 55.3857 7.36541C55.8417 7.79867 56.6852 8.23193 57.8936 8.61958L61.131 9.64572C62.7725 10.1702 63.958 10.8999 64.6648 11.8348C65.3716 12.7697 65.7135 13.8415 65.7135 15.0273C65.7135 16.0078 65.5084 16.8971 65.1208 17.6724C64.7104 18.4477 64.1632 19.1318 63.4565 19.6791C62.7497 20.2492 61.9061 20.6596 60.9258 20.9561C59.8998 21.2753 58.8283 21.4349 57.6656 21.4349Z" fill="white"/>
<path fill-rule="evenodd" clip-rule="evenodd" d="M61.9744 32.5173C54.4736 38.0584 43.5758 41 34.2055 41C21.0734 41 9.24081 36.1429 0.303684 28.0706C-0.403079 27.4322 0.235287 26.5656 1.07884 27.0673C10.7455 32.6769 22.6693 36.0745 35.0034 36.0745C43.325 36.0745 52.4673 34.3415 60.8801 30.7842C62.134 30.2141 63.2056 31.6051 61.9744 32.5173Z" fill="#FF9900"/>
<path fill-rule="evenodd" clip-rule="evenodd" d="M65.0978 28.96C64.1403 27.7286 58.7597 28.3671 56.3203 28.6635C55.5907 28.7548 55.4767 28.1163 56.1379 27.6374C60.4241 24.6274 67.4689 25.4939 68.2896 26.4972C69.1104 27.5234 68.0617 34.5695 64.0491 37.9444C63.4335 38.4689 62.8407 38.1952 63.1143 37.5111C64.0263 35.2536 66.0554 30.1685 65.0978 28.96Z" fill="#FF9900"/>
</svg>
