<svg width="56" height="63" viewBox="0 0 56 63" fill="none" xmlns="http://www.w3.org/2000/svg">
<path fill-rule="evenodd" clip-rule="evenodd" d="M27.6921 0C30.5834 0 33.0396 3.73043 34.6771 9.75848C35.2451 11.8514 35.7312 14.2411 36.115 16.856C38.5713 15.8837 40.8843 15.1111 42.9772 14.5533C49.0103 12.9567 53.4674 13.2228 54.9156 15.7251C56.3586 18.2274 54.3578 22.2188 49.957 26.6452C48.4321 28.1804 46.6053 29.7974 44.5277 31.44C45.3567 32.095 46.1498 32.75 46.8969 33.3948C46.2164 33.8707 45.6586 34.5001 45.2697 35.237C44.41 34.495 43.4889 33.7427 42.5166 32.9803C42.3171 33.1287 42.1124 33.2771 41.9077 33.4306C41.4676 36.5981 39.9939 39.433 37.8395 41.5874L37.7167 41.7C37.338 42.0684 36.944 42.4164 36.5295 42.7387C36.5039 42.9946 36.4732 43.2505 36.4425 43.5063C39.0165 44.5502 41.4318 45.369 43.6015 45.9421C48.5191 47.2419 51.963 47.3391 52.7817 45.9268C53.2167 45.1745 52.9096 43.9925 51.9937 42.5085C52.7357 42.1861 53.3907 41.6948 53.9126 41.0859C55.3915 43.5063 55.806 45.6095 54.9156 47.1498C53.4725 49.6572 49.0206 49.9233 42.9823 48.3267C40.8894 47.7741 38.5764 46.9963 36.115 46.024C35.7312 48.6389 35.2451 51.0286 34.6771 53.1215C33.0396 59.1496 30.5834 62.88 27.6921 62.88C24.8009 62.88 22.3447 59.1496 20.7072 53.1215C20.1392 51.0286 19.653 48.6389 19.2693 46.024C18.3789 46.3771 17.5089 46.7046 16.6646 47.0014C16.5981 46.1468 16.3269 45.3536 15.9021 44.6628C16.8846 44.3148 17.8978 43.9311 18.9418 43.5063C18.911 43.2556 18.8855 42.9997 18.8548 42.7439C18.3993 42.3857 17.9644 42.0019 17.555 41.5925L17.5448 41.5823C15.3904 39.4279 13.9167 36.593 13.4766 33.4255C13.2719 33.2771 13.0672 33.1236 12.8676 32.9752C10.6724 34.6843 8.75343 36.3679 7.17222 37.9593C3.57995 41.5823 1.77359 44.5195 2.59234 45.937C3.04777 46.725 4.31683 47.0423 6.19995 46.9451C6.1846 47.0986 6.17949 47.2572 6.17949 47.4159C6.17949 48.0862 6.30742 48.7259 6.53257 49.3143C3.52878 49.4474 1.38468 48.7617 0.463587 47.1651C-0.97946 44.6577 1.02136 40.6663 5.42214 36.2399C6.95218 34.7048 8.7739 33.0877 10.8515 31.4451C8.77902 29.8025 6.95218 28.1855 5.42214 26.6503C1.02136 22.2239 -0.97946 18.2325 0.463587 15.7302C1.91175 13.2279 6.3637 12.9618 12.402 14.5584C14.4949 15.1111 16.8079 15.8837 19.2693 16.8611C19.4074 15.9145 19.5609 14.9985 19.7247 14.1183C20.436 14.4765 21.2343 14.6761 22.0837 14.6761H22.1298C21.9404 15.6842 21.7716 16.7434 21.618 17.8385C21.8483 17.9357 22.0735 18.0381 22.3037 18.1404C23.9668 17.465 25.7834 17.0914 27.687 17.0914C29.5906 17.0914 31.4123 17.465 33.0754 18.1353C33.3006 18.033 33.5309 17.9357 33.756 17.8385C33.3722 15.0804 32.8759 12.578 32.2874 10.4135C30.9569 5.51121 29.3194 2.47672 27.687 2.47672C26.7813 2.47672 25.8704 3.41316 25.0159 5.08137C24.3557 4.63617 23.5933 4.33426 22.7643 4.2268C24.1613 1.53004 25.8346 0 27.6921 0ZM27.6921 23.1297C31.3049 23.1297 34.237 24.5011 34.237 26.1898C34.237 27.8836 31.3049 29.2498 27.6921 29.2498C24.0794 29.2498 21.1473 27.8784 21.1473 26.1898C21.1473 24.5011 24.0794 23.1297 27.6921 23.1297ZM21.1473 34.6127V36.9614C22.314 41.0961 33.8123 40.2979 34.237 36.7516V34.4029C33.6639 38.297 22.0684 38.5785 21.1473 34.6127ZM21.1166 27.6635V29.9611C22.2833 33.9986 33.8481 33.4562 34.2728 29.9918V27.6993C33.6946 31.5014 22.0376 31.5372 21.1166 27.6635ZM21.1166 31.046V33.3948C22.2833 37.5295 33.8481 36.9717 34.2728 33.4255V31.0767C33.6946 34.9709 22.0376 35.0118 21.1166 31.046ZM27.6921 19.1434C34.4827 19.1434 39.9887 24.6495 39.9887 31.44C39.9887 38.2305 34.4827 43.7366 27.6921 43.7366C20.9016 43.7366 15.3955 38.2305 15.3955 31.44C15.3955 24.6495 20.9016 19.1434 27.6921 19.1434ZM36.5295 20.131C36.9901 20.4892 37.4301 20.8781 37.8395 21.2926C39.9939 23.447 41.4676 26.287 41.9077 29.4545C42.1124 29.6029 42.3171 29.7513 42.5166 29.9048C44.7119 28.1957 46.6309 26.5121 48.2121 24.9207C51.7941 21.3131 53.6005 18.3758 52.7868 16.9584C51.9681 15.546 48.5242 15.6432 43.6066 16.943C41.4369 17.5161 39.0216 18.3349 36.4477 19.3839C36.4732 19.6244 36.5039 19.8803 36.5295 20.131ZM33.0601 44.7549C31.4021 45.4253 29.5906 45.7937 27.6973 45.7937C25.7988 45.7937 23.9873 45.4253 22.3293 44.7498C22.0939 44.8521 21.8585 44.9596 21.6232 45.0568C22.0069 47.815 22.5033 50.3173 23.0918 52.4819C24.4223 57.3841 26.0598 60.4186 27.6973 60.4186C29.3296 60.4186 30.9723 57.3841 32.2976 52.4819C32.881 50.3173 33.3773 47.8099 33.7611 45.0568C33.5257 44.9596 33.2903 44.8573 33.0601 44.7549ZM13.4817 29.4443C13.9218 26.2819 15.3955 23.4418 17.5499 21.2926L17.6727 21.18C18.0462 20.8167 18.4403 20.4688 18.8496 20.1464C18.8752 19.8905 18.9059 19.6346 18.9366 19.3788C16.3576 18.3349 13.9474 17.5161 11.7777 16.9379C6.86007 15.6381 3.4162 15.5409 2.59745 16.9532C1.77359 18.3707 3.57995 21.308 7.1671 24.9156C8.74831 26.507 10.6673 28.1906 12.8625 29.8997C13.0672 29.7462 13.2719 29.5978 13.4817 29.4443ZM49.5323 34.1572C51.4103 34.1572 52.9352 35.6821 52.9352 37.5602C52.9352 39.4382 51.4103 40.9631 49.5323 40.9631C47.6543 40.9631 46.1294 39.4382 46.1294 37.5602C46.1294 35.6821 47.6492 34.1572 49.5323 34.1572ZM11.4348 43.9055C13.3128 43.9055 14.8378 45.4304 14.8378 47.3084C14.8378 49.1864 13.3128 50.7113 11.4348 50.7113C9.55683 50.7113 8.03191 49.1864 8.03191 47.3084C8.03191 45.4304 9.55683 43.9055 11.4348 43.9055ZM22.0786 6.01781C23.9566 6.01781 25.4815 7.54273 25.4815 9.42074C25.4815 11.2987 23.9566 12.8237 22.0786 12.8237C20.2006 12.8237 18.6757 11.2987 18.6757 9.42074C18.6757 7.54273 20.2006 6.01781 22.0786 6.01781Z" fill="white"/>
</svg>
