<svg width="32" height="33" viewBox="0 0 32 33" fill="none" xmlns="http://www.w3.org/2000/svg">
<path d="M31.3443 24.6227L31.351 24.6191H31.3379L23.6177 20.4358L15.8847 16.2451L8.15131 20.4358L0.431106 24.6191H0.417969L0.42469 24.6227L0.417969 24.6264H0.431106L8.15131 28.8097L15.8847 33.0004L23.6177 28.8097L31.3379 24.6264H31.351L31.3443 24.6227Z" fill="#DDC7FF"/>
<path d="M31.3443 8.55536L31.351 8.55199H31.3379L23.6177 4.36839L15.8847 0.177734L8.15131 4.36839L0.431106 8.55199H0.417969L0.42469 8.55536L0.417969 8.55904H0.431106L8.15131 12.7426L15.8847 16.9333L23.6177 12.7426L31.3379 8.55904H31.351L31.3443 8.55536Z" fill="#733EC7"/>
<path d="M0.431152 8.21484V24.9631L15.8847 16.5891L0.431152 8.21484Z" fill="#BA8EFF"/>
<path d="M31.338 8.21484V24.9631L15.8848 16.5891L31.338 8.21484Z" fill="#BA8EFF"/>
</svg>
