<svg width="19" height="19" viewBox="0 0 19 19" fill="none" xmlns="http://www.w3.org/2000/svg">
<mask id="mask0_314_532" style="mask-type:luminance" maskUnits="userSpaceOnUse" x="0" y="0" width="19" height="19">
<path d="M18.0909 7.51207H9.70454V10.9893H14.5318C14.0818 13.1984 12.2 14.4666 9.70454 14.4666C6.75909 14.4666 4.38636 12.0939 4.38636 9.14844C4.38636 6.20298 6.75909 3.83026 9.70454 3.83026C10.9727 3.83026 12.1182 4.28026 13.0182 5.01662L15.6364 2.39844C14.0409 1.00753 11.9955 0.148438 9.70454 0.148438C4.71364 0.148438 0.704544 4.15753 0.704544 9.14844C0.704544 14.1393 4.71364 18.1484 9.70454 18.1484C14.2045 18.1484 18.2955 14.8757 18.2955 9.14844C18.2955 8.61662 18.2136 8.04389 18.0909 7.51207Z" fill="white"/>
</mask>
<g mask="url(#mask0_314_532)">
<path d="M-0.113686 14.4666V3.83026L6.84086 9.14844L-0.113686 14.4666Z" fill="#FBBC05"/>
</g>
<mask id="mask1_314_532" style="mask-type:luminance" maskUnits="userSpaceOnUse" x="0" y="0" width="19" height="19">
<path d="M18.0909 7.51207H9.70454V10.9893H14.5318C14.0818 13.1984 12.2 14.4666 9.70454 14.4666C6.75909 14.4666 4.38636 12.0939 4.38636 9.14844C4.38636 6.20298 6.75909 3.83026 9.70454 3.83026C10.9727 3.83026 12.1182 4.28026 13.0182 5.01662L15.6364 2.39844C14.0409 1.00753 11.9955 0.148438 9.70454 0.148438C4.71364 0.148438 0.704544 4.15753 0.704544 9.14844C0.704544 14.1393 4.71364 18.1484 9.70454 18.1484C14.2045 18.1484 18.2955 14.8757 18.2955 9.14844C18.2955 8.61662 18.2136 8.04389 18.0909 7.51207Z" fill="white"/>
</mask>
<g mask="url(#mask1_314_532)">
<path d="M-0.113686 3.83026L6.84086 9.14844L9.7045 6.65299L19.5227 5.05753V-0.669739H-0.113686V3.83026Z" fill="#EA4335"/>
</g>
<mask id="mask2_314_532" style="mask-type:luminance" maskUnits="userSpaceOnUse" x="0" y="0" width="19" height="19">
<path d="M18.0909 7.51207H9.70454V10.9893H14.5318C14.0818 13.1984 12.2 14.4666 9.70454 14.4666C6.75909 14.4666 4.38636 12.0939 4.38636 9.14844C4.38636 6.20298 6.75909 3.83026 9.70454 3.83026C10.9727 3.83026 12.1182 4.28026 13.0182 5.01662L15.6364 2.39844C14.0409 1.00753 11.9955 0.148438 9.70454 0.148438C4.71364 0.148438 0.704544 4.15753 0.704544 9.14844C0.704544 14.1393 4.71364 18.1484 9.70454 18.1484C14.2045 18.1484 18.2955 14.8757 18.2955 9.14844C18.2955 8.61662 18.2136 8.04389 18.0909 7.51207Z" fill="white"/>
</mask>
<g mask="url(#mask2_314_532)">
<path d="M-0.113686 14.4666L12.159 5.05753L15.3909 5.46662L19.5227 -0.669739V18.9666H-0.113686V14.4666Z" fill="#34A853"/>
</g>
<mask id="mask3_314_532" style="mask-type:luminance" maskUnits="userSpaceOnUse" x="0" y="0" width="19" height="19">
<path d="M18.0909 7.51207H9.70454V10.9893H14.5318C14.0818 13.1984 12.2 14.4666 9.70454 14.4666C6.75909 14.4666 4.38636 12.0939 4.38636 9.14844C4.38636 6.20298 6.75909 3.83026 9.70454 3.83026C10.9727 3.83026 12.1182 4.28026 13.0182 5.01662L15.6364 2.39844C14.0409 1.00753 11.9955 0.148438 9.70454 0.148438C4.71364 0.148438 0.704544 4.15753 0.704544 9.14844C0.704544 14.1393 4.71364 18.1484 9.70454 18.1484C14.2045 18.1484 18.2955 14.8757 18.2955 9.14844C18.2955 8.61662 18.2136 8.04389 18.0909 7.51207Z" fill="white"/>
</mask>
<g mask="url(#mask3_314_532)">
<path d="M19.5227 18.9666L6.84086 9.14844L5.2045 7.92117L19.5227 3.83026V18.9666Z" fill="#4285F4"/>
</g>
</svg>
