<svg width="56" height="50" viewBox="0 0 56 50" fill="none" xmlns="http://www.w3.org/2000/svg">
<path d="M55.774 25.0056C55.774 21.2863 51.147 17.7614 44.0531 15.5756C45.6901 8.29707 44.9625 2.50629 41.7566 0.652321C41.0177 0.21744 40.1536 0.0114441 39.2101 0.0114441V2.56351C39.733 2.56351 40.1537 2.66651 40.5061 2.86106C42.0522 3.75371 42.7229 7.15264 42.2 11.5243C42.0749 12.6001 41.8703 13.7331 41.6202 14.8889C39.392 14.3396 36.9591 13.9162 34.4012 13.6415C32.8664 11.5243 31.2748 9.60171 29.6719 7.91941C33.378 4.45181 36.8568 2.55206 39.2214 2.55206V0C36.0951 0 32.0024 2.24307 27.8643 6.13411C23.7261 2.26596 19.6335 0.0457771 16.5071 0.0457771V2.59784C18.8604 2.59784 22.3505 4.48614 26.0567 7.93085C24.4651 9.61316 22.8735 11.5243 21.3615 13.6415C18.7922 13.9162 16.3593 14.3396 14.1311 14.9004C13.8696 13.756 13.6763 12.6459 13.5399 11.5816C13.0056 7.20987 13.665 3.81093 15.1997 2.90684C15.5408 2.70084 15.9842 2.60929 16.5071 2.60929V0.0572212C15.5522 0.0572212 14.6881 0.263217 13.9378 0.698098C10.7433 2.55206 10.027 8.3314 11.6755 15.587C4.60425 17.7843 0 21.2977 0 25.0056C0 28.725 4.62699 32.2498 11.721 34.4357C10.0839 41.7142 10.8115 47.505 14.0174 49.359C14.7564 49.7938 15.6204 49.9999 16.5753 49.9999C19.7017 49.9999 23.7943 47.7568 27.9325 43.8657C32.0706 47.7339 36.1633 49.9541 39.2896 49.9541C40.2446 49.9541 41.1086 49.7481 41.8589 49.3132C45.0535 47.4592 45.7697 41.6799 44.1213 34.4242C51.1698 32.2384 55.774 28.7136 55.774 25.0056ZM40.9722 17.3723C40.5515 18.8486 40.0286 20.3707 39.4374 21.8928C38.9713 20.9773 38.4825 20.0617 37.9482 19.1462C37.4252 18.2307 36.8682 17.338 36.3111 16.4682C37.9254 16.7086 39.4829 17.0061 40.9722 17.3723ZM35.7654 29.5604C34.8787 31.1054 33.9692 32.5703 33.0256 33.9321C31.3317 34.0809 29.615 34.161 27.887 34.161C26.1704 34.161 24.4537 34.0809 22.7712 33.9436C21.8276 32.5817 20.9067 31.1283 20.02 29.5948C19.156 28.0956 18.3715 26.5735 17.6553 25.04C18.3602 23.5065 19.156 21.9729 20.0086 20.4737C20.8954 18.9288 21.8048 17.4639 22.7484 16.102C24.4423 15.9533 26.159 15.8731 27.887 15.8731C29.6037 15.8731 31.3203 15.9533 33.0028 16.0906C33.9464 17.4525 34.8673 18.9059 35.754 20.4394C36.618 21.9386 37.4025 23.4607 38.1187 24.9942C37.4025 26.5277 36.618 28.0613 35.7654 29.5604ZM39.4374 28.0727C40.0513 29.6062 40.5743 31.1398 41.0063 32.6275C39.517 32.9937 37.9482 33.3027 36.3225 33.543C36.8795 32.6618 37.4366 31.7577 37.9595 30.8308C38.4825 29.9152 38.9713 28.9882 39.4374 28.0727ZM27.9097 40.2837C26.8525 39.1851 25.7952 37.9605 24.7493 36.6215C25.7725 36.6673 26.8184 36.7017 27.8756 36.7017C28.9443 36.7017 30.0016 36.6788 31.0361 36.6215C30.0129 37.9605 28.9557 39.1851 27.9097 40.2837ZM19.4516 33.543C17.8372 33.3027 16.2797 33.0052 14.7905 32.639C15.2111 31.1626 15.734 29.6406 16.3252 28.1185C16.7913 29.034 17.2802 29.9496 17.8145 30.8651C18.3488 31.7806 18.8945 32.6733 19.4516 33.543ZM27.8529 9.7276C28.9102 10.8262 29.9674 12.0508 31.0134 13.3898C29.9902 13.344 28.9443 13.3096 27.887 13.3096C26.8184 13.3096 25.7611 13.3325 24.7266 13.3898C25.7497 12.0508 26.807 10.8262 27.8529 9.7276ZM19.4402 16.4682C18.8831 17.3495 18.3261 18.2535 17.8031 19.1805C17.2802 20.0961 16.7913 21.0116 16.3252 21.9271C15.7113 20.3936 15.1884 18.8601 14.7564 17.3723C16.2456 17.0176 17.8145 16.7086 19.4402 16.4682ZM9.15167 30.7964C5.12721 29.0683 2.52381 26.8024 2.52381 25.0056C2.52381 23.2089 5.12721 20.9315 9.15167 19.2149C10.1294 18.7914 11.198 18.4138 12.3008 18.059C12.9488 20.3021 13.8014 22.6367 14.8587 25.0285C13.8128 27.4089 12.9715 29.7321 12.3349 31.9637C11.2094 31.609 10.1407 31.2199 9.15167 30.7964ZM15.2679 47.1502C13.7218 46.2576 13.0511 42.8586 13.574 38.4869C13.6991 37.4112 13.9037 36.2782 14.1538 35.1223C16.3821 35.6717 18.8149 36.0951 21.3728 36.3698C22.9076 38.4869 24.4992 40.4096 26.1021 42.0919C22.396 45.5595 18.9172 47.4592 16.5526 47.4592C16.041 47.4478 15.609 47.3448 15.2679 47.1502ZM42.2341 38.4297C42.7684 42.8014 42.109 46.2004 40.5743 47.1045C40.2332 47.3105 39.7899 47.402 39.2669 47.402C36.9136 47.402 33.4235 45.5137 29.7173 42.069C31.3089 40.3867 32.9005 38.4755 34.4125 36.3583C36.9818 36.0837 39.4147 35.6602 41.6429 35.0995C41.9044 36.2553 42.109 37.3654 42.2341 38.4297ZM46.611 30.7964C45.6333 31.2199 44.5646 31.5975 43.4619 31.9523C42.8139 29.7092 41.9613 27.3746 40.904 24.9828C41.9499 22.6024 42.7912 20.2792 43.4278 18.0476C44.5533 18.4023 45.6219 18.7914 46.6223 19.2149C50.6468 20.9429 53.2502 23.2089 53.2502 25.0056C53.2388 26.8024 50.6354 29.0798 46.611 30.7964Z" fill="#00DCFF"/>
<path d="M27.8756 30.2354C30.7449 30.2354 33.071 27.8939 33.071 25.0054C33.071 22.1169 30.7449 19.7754 27.8756 19.7754C25.0062 19.7754 22.6802 22.1169 22.6802 25.0054C22.6802 27.8939 25.0062 30.2354 27.8756 30.2354Z" fill="#00DCFF"/>
</svg>
