<svg width="152" height="44" viewBox="0 0 152 44" fill="none" xmlns="http://www.w3.org/2000/svg">
<g clip-path="url(#clip0_814_219)">
<path d="M57.3113 18.7341C57.3113 14.0872 55.9821 11.7015 53.3234 11.571C52.2654 11.5212 51.2329 11.689 50.228 12.078C49.4261 12.364 48.8864 12.6473 48.6024 12.9336V24.0253C50.3029 25.0892 51.813 25.5839 53.13 25.506C55.9162 25.3219 57.3113 23.067 57.3113 18.7341ZM60.5908 18.9268C60.5908 21.2876 60.0353 23.2473 58.9181 24.8055C57.6731 26.5693 55.9476 27.4775 53.7415 27.5273C52.0784 27.5799 50.3651 27.0607 48.6021 25.9719V36.053L45.75 35.0388V12.6627C46.218 12.0905 46.8205 11.599 47.5504 11.182C49.2481 10.1959 51.3104 9.68916 53.7383 9.66427L53.7786 9.70447C55.9975 9.67671 57.707 10.5849 58.9085 12.4262C60.0289 14.1153 60.5908 16.2801 60.5908 18.9268ZM78.0211 25.543C78.0211 28.7096 77.7029 30.9022 77.0665 32.1215C76.4268 33.3405 75.2097 34.3141 73.4125 35.0392C71.9552 35.6113 70.3792 35.9225 68.6882 35.9754L68.2167 34.1839C69.9361 33.951 71.1469 33.7174 71.8489 33.4841C73.2313 33.0176 74.1798 32.3025 74.701 31.3442C75.1191 30.5636 75.3249 29.0737 75.3249 26.8686V26.1283C73.3747 27.0119 71.331 27.4503 69.1937 27.4503C67.7893 27.4503 66.5507 27.0119 65.4834 26.1283C64.2851 25.1671 63.6862 23.9481 63.6862 22.4706V10.6379L66.5382 9.66427V21.5739C66.5382 22.8459 66.9499 23.8259 67.7736 24.5132C68.5973 25.2006 69.6647 25.5306 70.9721 25.5054C72.2795 25.4773 73.6804 24.9734 75.1687 23.9873V10.0932H78.0208L78.0211 25.543ZM89.1544 27.3718C88.842 27.3981 88.5287 27.4116 88.2152 27.4121C86.602 27.4121 85.3442 27.0298 84.4459 26.2613C83.5502 25.4932 83.101 24.4328 83.101 23.0795V11.8818H81.1476V10.0935H83.101V5.3438L85.9499 4.33285V10.0935H89.1544V11.8818H85.9499V23.0016C85.9499 24.0687 86.2367 24.8244 86.8107 25.2663C87.3037 25.6301 88.0871 25.8385 89.1541 25.8915V27.3718H89.1544ZM106.423 27.1386H103.571V16.1649C103.571 15.0483 103.309 14.0872 102.788 13.2849C102.185 12.3764 101.349 11.9223 100.276 11.9223C98.9681 11.9223 97.3332 12.6097 95.3705 13.9844V27.1386H92.5187V0.908445L95.3705 0.0126953V11.9596C97.1927 10.6376 99.1836 9.97508 101.346 9.97508C102.856 9.97508 104.079 10.4822 105.016 11.4931C105.955 12.5037 106.423 13.7636 106.423 15.2692L106.423 27.1386ZM121.581 18.2864C121.581 16.5009 121.241 15.0266 120.564 13.8603C119.759 12.439 118.508 11.689 116.817 11.6115C113.69 11.7918 112.129 14.0249 112.129 18.3052C112.129 20.2677 112.454 21.907 113.109 23.2227C113.946 24.8994 115.2 25.7268 116.873 25.6987C120.012 25.6735 121.581 23.2039 121.581 18.2864ZM124.705 18.3049C124.705 20.8463 124.053 22.9614 122.752 24.6501C121.319 26.5415 119.341 27.4899 116.817 27.4899C114.314 27.4899 112.364 26.5412 110.957 24.6501C109.68 22.9614 109.043 20.8463 109.043 18.3049C109.043 15.9163 109.733 13.9069 111.112 12.2708C112.57 10.5351 114.485 9.66427 116.854 9.66427C119.222 9.66427 121.151 10.5351 122.636 12.2708C124.015 13.9069 124.705 15.9163 124.705 18.3049ZM141.056 27.1386H138.203V15.543C138.203 14.271 137.82 13.2785 137.052 12.5631C136.285 11.8508 135.261 11.5055 133.985 11.5333C132.631 11.5582 131.342 11.9999 130.119 12.8554V27.1386H127.267V12.5041C128.908 11.3131 130.418 10.5351 131.798 10.1713C133.099 9.83244 134.247 9.66427 135.236 9.66427C135.913 9.66427 136.55 9.72936 137.149 9.8602C138.269 10.1184 139.181 10.5974 139.882 11.3004C140.666 12.078 141.056 13.0108 141.056 14.1028V27.1386Z" fill="white"/>
<path d="M17.5813 1.0135C16.1138 1.0202 14.7126 1.14497 13.4798 1.36261C9.84752 2.00243 9.18804 3.34111 9.18804 5.8104V9.07142H17.7715V10.1583H5.96653C3.47205 10.1583 1.28745 11.653 0.604284 14.4963C-0.183886 17.7554 -0.218781 19.7891 0.604284 23.1922C1.21446 25.7253 2.67171 27.5302 5.1662 27.5302H8.11751V23.621C8.11751 20.7969 10.5688 18.3059 13.4798 18.3059H22.0533C24.4399 18.3059 26.345 16.3472 26.345 13.958V5.81008C26.345 3.49141 24.3826 1.74937 22.0533 1.36229C20.5784 1.11785 19.0488 1.00647 17.5813 1.0135ZM12.9394 3.63597C13.8261 3.63597 14.55 4.36961 14.55 5.27142C14.55 6.17004 13.8258 6.89698 12.9394 6.89698C12.0497 6.89698 11.3288 6.17036 11.3288 5.27142C11.3288 4.36961 12.0497 3.63597 12.9394 3.63597Z" fill="url(#paint0_linear_814_219)"/>
<path d="M27.4155 10.158V13.9573C27.4155 16.903 24.9101 19.3822 22.0532 19.3822H13.4797C11.1312 19.3822 9.18799 21.3856 9.18799 23.7302V31.8774C9.18799 34.1964 11.2106 35.5603 13.4797 36.2253C16.1967 37.0218 18.8023 37.1658 22.0532 36.2253C24.2141 35.6018 26.3449 34.3464 26.3449 31.8774V28.6167H17.7714V27.5298H30.6367C33.1315 27.5298 34.0608 25.7951 34.9284 23.1918C35.8247 20.5119 35.7867 17.9341 34.9284 14.496C34.3118 12.0206 33.1343 10.158 30.6367 10.158H27.4155ZM22.5933 30.7905C23.4829 30.7905 24.2039 31.5171 24.2039 32.4161C24.2039 33.3179 23.4829 34.0515 22.5933 34.0515C21.7065 34.0515 20.9827 33.3179 20.9827 32.4161C20.9827 31.5175 21.7068 30.7905 22.5933 30.7905Z" fill="url(#paint1_linear_814_219)"/>
<path d="M146.61 7.55881H147.11V4.43278H148.294V4.06006H145.425V4.43278H146.609L146.61 7.55881ZM148.738 7.55881H149.165V4.70371L150.092 7.55849H150.567L151.534 4.71328V7.55881H152V4.06038H151.383L150.327 7.05781L149.427 4.06038H148.738V7.55881Z" fill="white"/>
<path opacity="0.444" d="M29.3715 41.7641C29.3715 42.9921 24.2215 43.9874 17.8685 43.9874C11.5157 43.9874 6.36572 42.9921 6.36572 41.7641C6.36572 40.5362 11.5157 39.5405 17.8685 39.5405C24.2215 39.5405 29.3715 40.5362 29.3715 41.7641Z" fill="url(#paint2_radial_814_219)"/>
</g>
<defs>
<linearGradient id="paint0_linear_814_219" x1="-0.846564" y1="2.03178" x2="18.8936" y2="18.9048" gradientUnits="userSpaceOnUse">
<stop stop-color="#5A9FD4"/>
<stop offset="1" stop-color="#306998"/>
</linearGradient>
<linearGradient id="paint1_linear_814_219" x1="26.3738" y1="29.3222" x2="19.3024" y2="19.3824" gradientUnits="userSpaceOnUse">
<stop stop-color="#FFD43B"/>
<stop offset="1" stop-color="#FFE873"/>
</linearGradient>
<radialGradient id="paint2_radial_814_219" cx="0" cy="0" r="1" gradientUnits="userSpaceOnUse" gradientTransform="translate(17.8648 41.713) rotate(-90) scale(2.22293 9.80421)">
<stop stop-color="#B8B8B8" stop-opacity="0.498"/>
<stop offset="1" stop-color="#7F7F7F" stop-opacity="0"/>
</radialGradient>
<clipPath id="clip0_814_219">
<rect width="152" height="44" fill="white"/>
</clipPath>
</defs>
</svg>
