<svg width="468" height="14" viewBox="0 0 468 14" fill="none" xmlns="http://www.w3.org/2000/svg">
<path d="M0 6.46094H206.038M261.962 6.46094H468M231.402 1C228.267 1 226.304 3.25 226.304 6.82812C226.304 10.4062 228.267 12.6484 231.402 12.6484C234.537 12.6484 236.499 10.4062 236.499 6.82812C236.499 3.25 234.537 1 231.402 1ZM231.402 2.29688C233.663 2.29688 235.081 4.04688 235.081 6.82812C235.081 9.60156 233.663 11.3516 231.402 11.3516C229.14 11.3516 227.722 9.60156 227.722 6.82812C227.722 4.04688 229.14 2.29688 231.402 2.29688ZM238.009 12.4609H239.343V7.39844C239.343 6.25 240.017 5.49219 241.052 5.49219C241.374 5.49219 241.657 5.53125 241.765 5.57031V4.25C241.657 4.23438 241.458 4.19531 241.228 4.19531C240.293 4.19531 239.557 4.76562 239.297 5.66406H239.266V4.33594H238.009V12.4609Z" stroke="#3B2662"/>
</svg>
